<svg width="491" height="158" viewBox="0 0 491 158" fill="none" xmlns="http://www.w3.org/2000/svg">
<path d="M361.9 130.273C365.7 130.273 368.6 127.353 368.6 123.022V106H372.7V133.496H368.6V130.978C366.8 132.892 364.2 134 361.4 134C355.5 134 351 129.669 351 123.223V106H355.1V122.921C355.1 127.353 358.1 130.273 361.9 130.273ZM375.7 106H379.6V115.971C381.4 114.058 384 112.95 386.7 112.95C392.6 112.95 397.1 117.583 397.1 123.424C397.1 129.165 392.5 133.799 386.7 133.799C384 133.799 381.5 132.691 379.6 130.777V133.295H375.7V106ZM386.4 130.475C390.1 130.475 393.2 127.353 393.2 123.525C393.2 119.597 390.1 116.576 386.4 116.576C382.7 116.475 379.6 119.597 379.6 123.424C379.6 127.252 382.6 130.475 386.4 130.475ZM408.9 113.05C414.6 113.05 418.8 117.482 418.8 123.424V124.734H402.6C403.1 128.058 405.9 130.374 409.2 130.374C411.5 130.374 413.4 129.367 414.9 127.453L417.8 129.568C415.8 132.288 412.8 133.799 409.2 133.799C403.2 133.799 398.7 129.367 398.7 123.424C398.7 117.784 403 113.05 408.9 113.05ZM402.7 121.612H414.8C414.1 118.489 411.7 116.576 408.7 116.576C405.7 116.576 403.4 118.489 402.7 121.612ZM429.4 116.978C426.8 116.978 425 118.993 425 122.014V133.396H421V113.453H424.9V115.871C425.9 114.259 427.5 113.252 429.7 113.252H431V117.079L429.4 116.978Z" fill="#03363D"/>
<path d="M351 50H455.538L466 32H351V50Z" fill="#03363D"/>
<path d="M370.843 38.4254C370.411 38.0809 369.892 37.9948 369.373 37.9948C368.768 37.9948 368.249 38.4254 368.249 38.856C368.249 39.2005 368.422 39.3728 368.854 39.4589L369.546 39.6312C370.411 39.9757 370.929 40.3202 370.929 41.0953C370.929 42.5594 369.632 43.679 367.644 43.679C366.693 43.679 366.001 43.5068 365.482 43.0761L366.174 42.0426C366.693 42.3871 367.211 42.5594 367.99 42.5594C368.854 42.5594 369.373 42.1287 369.373 41.4397C369.373 41.0953 369.2 40.923 368.681 40.7508L367.99 40.5785C367.298 40.4063 366.693 39.9757 366.693 39.2005C366.693 37.8225 367.99 36.7891 369.546 36.7891C370.411 36.7891 371.102 36.9613 371.621 37.3919L370.843 38.4254Z" fill="white"/>
<path d="M374.452 39.765H373.587L373.069 42.2626C373.069 42.4349 373.069 42.6071 373.069 42.6932C373.069 43.0377 373.155 43.0377 373.501 43.0377C373.587 43.0377 373.847 43.0377 374.02 42.9516V43.6406C373.587 43.7267 373.328 43.8128 372.982 43.8128C372.29 43.8128 371.858 43.4683 371.858 42.9516C371.858 42.7794 371.858 42.521 371.945 42.3487L372.463 39.6789H371.945L372.118 38.8176H372.636C372.723 38.3009 372.809 37.9564 372.982 37.698L374.366 37.3535C374.279 37.7841 374.02 38.3009 373.933 38.8176H375.057L374.452 39.765Z" fill="white"/>
<path d="M377.534 39.7361C377.188 39.7361 377.015 39.7361 376.583 40.1667C376.15 40.6834 375.977 41.6308 375.977 42.2337C375.977 42.6643 376.064 42.8365 376.41 42.8365C376.842 42.8365 377.274 42.4059 377.361 42.1476L377.88 39.8222C377.88 39.8222 377.707 39.7361 377.534 39.7361ZM379.004 40.339L378.571 42.2337C378.485 42.6643 378.571 42.9227 378.744 43.1811L377.707 44.0423C377.534 43.9562 377.361 43.6117 377.274 43.4394C376.842 43.87 376.583 44.0423 375.891 44.0423C374.94 44.0423 374.507 43.5256 374.507 42.4921C374.507 41.3725 374.94 40.339 375.545 39.65C376.064 39.1332 376.669 38.9609 377.534 38.9609C378.139 38.9609 378.831 39.0471 379.177 39.3055C379.263 39.3916 379.177 39.9083 379.004 40.339Z" fill="white"/>
<path d="M381.526 38.645C381.613 38.8173 381.613 39.2479 381.613 39.5063C382.045 39.0756 382.564 38.8172 383.256 38.8172C383.861 38.8172 384.207 39.2479 384.207 39.7646C384.207 39.9369 384.207 40.2814 384.12 40.4536L383.429 43.8125H382.132L382.823 40.5397C382.823 40.3675 382.91 40.1952 382.91 40.1091C382.91 39.9368 382.823 39.7646 382.564 39.7646C382.218 39.7646 381.959 39.9369 381.526 40.4536L380.835 43.7263H379.538L380.229 40.3675C380.316 39.8508 380.316 39.4201 380.229 39.0756L381.526 38.645Z" fill="white"/>
<path d="M387.222 38.0909L386.53 41.7082C386.444 42.311 386.357 42.5694 386.357 42.6555C386.357 42.8278 386.444 43 386.53 43H386.617L386.703 43.689C386.53 43.7751 386.184 43.7752 385.838 43.7752C385.147 43.7752 384.801 43.3445 384.801 42.9139C384.801 42.7417 384.887 42.3971 384.887 41.9665L385.579 38.3493C385.666 37.7464 385.752 37.3158 385.666 36.8852L387.049 36.4546C387.395 36.7991 387.395 37.4881 387.222 38.0909Z" fill="white"/>
<path d="M389.437 40.8307C389.956 40.8307 390.561 40.6584 390.561 40.1417C390.561 39.7972 390.475 39.6249 390.042 39.6249C389.524 39.6249 389.178 39.9694 389.005 40.7445C389.178 40.8306 389.351 40.8307 389.437 40.8307ZM391.339 43.2422C390.734 43.6728 390.042 43.845 389.351 43.845C388.227 43.845 387.448 43.2421 387.448 42.0364C387.448 41.0029 387.881 39.9694 388.572 39.3666C389.091 38.9359 389.61 38.7637 390.215 38.7637C391.166 38.7637 391.858 39.1943 391.858 40.1417C391.858 41.0891 390.994 41.778 389.351 41.778C389.005 41.778 388.745 41.6919 388.745 41.6919C388.745 41.6919 388.745 42.0364 388.745 42.1225C388.745 42.6393 389.091 42.9838 389.61 42.9838C390.042 42.9838 390.561 42.8115 390.994 42.467L391.339 43.2422Z" fill="white"/>
<path d="M393.898 38.7749L394.071 41.617C394.071 41.9615 394.071 42.6505 394.071 42.6505C394.071 42.6505 394.416 41.7892 394.676 41.1864L395.973 38.861H397.356L394.503 43.8562C393.984 44.8036 393.638 45.2342 393.206 45.4926C392.774 45.6648 392.341 45.9232 391.909 45.9232L391.736 45.062C392.082 44.9758 392.341 44.8897 392.601 44.7175C393.033 44.5452 393.119 44.2869 393.465 43.7701H393.119C393.119 43.4256 393.033 42.8228 393.033 42.3921L392.601 38.9472L393.898 38.7749Z" fill="white"/>
<path d="M399.387 39.8067H400.252C400.684 39.8067 400.771 39.7206 400.944 39.6345C401.117 39.5484 401.376 39.2038 401.376 38.9455C401.376 38.5149 401.203 38.3426 400.684 38.3426H399.82L399.387 39.8067ZM398.868 42.735H399.733C400.079 42.735 400.252 42.6488 400.425 42.5627C400.771 42.3905 400.944 41.9599 400.944 41.6154C400.944 41.1847 400.771 41.0125 400.079 41.0125H399.128L398.868 42.735ZM401.117 37.0508C402.154 37.0508 402.932 37.5675 402.932 38.5149C402.932 39.1177 402.5 39.8929 401.549 40.1512C402.154 40.2374 402.587 40.7541 402.587 41.4431C402.587 41.8737 402.414 42.4766 401.981 42.9933C401.462 43.5101 400.944 43.6823 399.906 43.6823H397.399L398.868 37.0508H401.117Z" fill="white"/>
<path d="M405.441 38.0909L404.749 41.7082C404.662 42.311 404.576 42.5694 404.576 42.6555C404.576 42.8278 404.662 43 404.749 43H404.835L404.922 43.689C404.749 43.7751 404.403 43.7752 404.057 43.7752C403.365 43.7752 403.019 43.3445 403.019 42.9139C403.019 42.7417 403.106 42.3971 403.106 41.9665L403.798 38.3493C403.884 37.7464 403.971 37.3158 403.884 36.8852L405.268 36.4546C405.613 36.7991 405.613 37.4881 405.441 38.0909Z" fill="white"/>
<path d="M408.709 39.7361C408.363 39.7361 408.191 39.7361 407.758 40.1667C407.326 40.6834 407.153 41.6308 407.153 42.2337C407.153 42.6643 407.239 42.8365 407.585 42.8365C408.018 42.8365 408.45 42.4059 408.536 42.1476L409.055 39.8222C409.055 39.8222 408.796 39.7361 408.709 39.7361ZM410.179 40.339L409.747 42.2337C409.66 42.6643 409.747 42.9227 409.92 43.1811L408.882 44.0423C408.709 43.9562 408.536 43.6117 408.45 43.4394C408.104 43.87 407.758 44.0423 407.153 44.0423C406.202 44.0423 405.769 43.5256 405.769 42.4921C405.769 41.3725 406.202 40.339 406.807 39.65C407.326 39.1332 407.931 38.9609 408.796 38.9609C409.401 38.9609 410.093 39.0471 410.439 39.3055C410.352 39.3916 410.266 39.9083 410.179 40.339Z" fill="white"/>
<path d="M414.261 40.0855C414.088 39.9132 413.742 39.741 413.569 39.741C413.396 39.741 413.137 39.8271 412.964 40.0855C412.618 40.5161 412.272 41.5496 412.272 42.2386C412.272 42.7553 412.445 42.9276 412.878 42.9276C413.223 42.9276 413.569 42.7554 413.915 42.4109L414.348 43.2721C413.829 43.7027 413.31 43.875 412.532 43.875C411.494 43.875 410.889 43.2721 410.889 42.2386C410.889 40.9467 411.408 39.9132 412.186 39.3103C412.618 38.8797 413.137 38.7075 413.742 38.7075C414.175 38.7075 414.693 38.8797 415.039 39.3103L414.261 40.0855Z" fill="white"/>
<path d="M420.241 38.834L418.252 40.9009L419.636 43.743H418.079L417.042 40.9009L418.685 38.834H420.241ZM417.647 36.5947C417.734 36.767 417.734 37.456 417.474 38.4895L416.35 43.8292H415.053L416.177 38.4034C416.264 37.7144 416.35 37.3698 416.264 37.0253L417.647 36.5947Z" fill="white"/>
<path d="M423.72 38.7448C423.72 38.4003 423.547 38.2281 423.202 38.2281C422.769 38.2281 422.51 38.5726 422.51 39.0894C422.51 39.2616 422.596 39.52 422.942 39.7783C423.374 39.52 423.72 39.0893 423.72 38.7448ZM421.559 42.276C421.559 42.7066 421.905 42.965 422.51 42.965C422.942 42.965 423.374 42.8788 423.547 42.6204L422.25 41.1564C421.732 41.3286 421.559 41.7592 421.559 42.276ZM425.709 40.4673C425.623 41.0702 425.277 41.8453 425.017 42.3621L426.141 43.7401H424.499L424.153 43.3095C423.72 43.654 423.115 43.8262 422.164 43.8262C420.78 43.8262 420.089 43.2233 420.089 42.276C420.089 41.4147 420.608 40.7257 421.645 40.2951C421.213 39.8645 421.126 39.6061 421.126 39.1755C421.126 38.142 422.077 37.2808 423.461 37.2808C424.412 37.2808 425.017 37.7975 425.017 38.4004C425.017 39.0894 424.671 39.6922 423.547 40.2951L423.461 40.3812L424.326 41.4147C424.499 41.0702 424.671 40.5535 424.671 40.3812H425.796C425.709 40.3812 425.709 40.4673 425.709 40.4673Z" fill="white"/>
<path d="M428.324 42.5632H428.929C429.535 42.5632 429.967 42.2187 430.226 41.8742C430.832 40.9268 430.918 39.5489 430.918 39.2905C430.918 38.6876 430.745 38.1709 429.881 38.1709H429.275L428.324 42.5632ZM429.708 37.0513C430.832 37.0513 431.523 37.1374 431.869 37.6541C432.215 38.0847 432.388 38.5154 432.388 39.2905C432.388 40.324 431.956 41.7881 431.091 42.7355C430.399 43.4245 429.708 43.769 428.238 43.769H426.595L428.065 37.1374L429.708 37.0513Z" fill="white"/>
<path d="M434.788 40.8307C435.306 40.8307 435.912 40.6584 435.912 40.1417C435.912 39.7972 435.825 39.6249 435.393 39.6249C434.874 39.6249 434.528 39.9694 434.355 40.7445C434.442 40.8306 434.615 40.8307 434.788 40.8307ZM436.69 43.2422C436.085 43.6728 435.393 43.845 434.701 43.845C433.577 43.845 432.799 43.2421 432.799 42.0364C432.799 41.0029 433.231 39.9694 433.923 39.3666C434.442 38.9359 434.961 38.7637 435.566 38.7637C436.517 38.7637 437.209 39.1943 437.209 40.1417C437.209 41.0891 436.344 41.778 434.701 41.778C434.355 41.778 434.096 41.6919 434.096 41.6919C434.096 41.6919 434.096 42.0364 434.096 42.1225C434.096 42.6393 434.442 42.9838 434.961 42.9838C435.393 42.9838 435.912 42.8115 436.344 42.467L436.69 43.2422Z" fill="white"/>
<path d="M441.108 40.0855C440.935 39.9132 440.59 39.741 440.417 39.741C440.244 39.741 439.984 39.8271 439.811 40.0855C439.465 40.5161 439.12 41.5496 439.12 42.2386C439.12 42.7553 439.293 42.9276 439.725 42.9276C440.071 42.9276 440.417 42.7554 440.762 42.4109L441.195 43.2721C440.676 43.7027 440.157 43.875 439.379 43.875C438.341 43.875 437.736 43.2721 437.736 42.2386C437.736 40.9467 438.255 39.9132 439.033 39.3103C439.465 38.8797 439.984 38.7075 440.59 38.7075C441.022 38.7075 441.541 38.8797 441.887 39.3103L441.108 40.0855Z" fill="white"/>
<path d="M447.001 38.834L445.012 40.9009L446.396 43.743H444.839L443.802 40.9009L445.445 38.834H447.001ZM444.494 36.5947C444.58 36.767 444.58 37.456 444.321 38.4895L443.197 43.8292H441.9L443.024 38.4034C443.11 37.7144 443.197 37.3698 443.11 37.0253L444.494 36.5947Z" fill="white"/>
<path d="M448.764 40.8307C449.283 40.8307 449.888 40.6584 449.888 40.1417C449.888 39.7972 449.801 39.6249 449.369 39.6249C448.85 39.6249 448.504 39.9694 448.331 40.7445C448.504 40.8306 448.677 40.8307 448.764 40.8307ZM450.753 43.2422C450.147 43.6728 449.456 43.845 448.764 43.845C447.64 43.845 446.862 43.2421 446.862 42.0364C446.862 41.0029 447.294 39.9694 447.986 39.3666C448.504 38.9359 449.023 38.7637 449.628 38.7637C450.58 38.7637 451.271 39.1943 451.271 40.1417C451.271 41.0891 450.407 41.778 448.764 41.778C448.418 41.778 448.159 41.6919 448.159 41.6919C448.159 41.6919 448.159 42.0364 448.159 42.1225C448.159 42.6393 448.504 42.9838 449.023 42.9838C449.456 42.9838 449.974 42.8115 450.407 42.467L450.753 43.2422Z" fill="white"/>
<path d="M453.552 38.645C453.638 38.8173 453.638 39.1618 453.638 39.5063C454.071 39.0756 454.589 38.8172 455.022 38.8172C455.195 38.8172 455.368 38.8173 455.454 38.9034L454.935 40.023C454.849 39.9369 454.762 39.9369 454.503 39.9369C454.33 39.9369 453.984 40.023 453.552 40.5397L452.86 43.8125H451.563L452.255 40.5397C452.341 39.9368 452.341 39.5062 452.255 39.1617L453.552 38.645Z" fill="white"/>
<g clip-path="url(#clip0_2_186)">
<path d="M188.575 114.288C188.192 114.483 188 114.775 188 115.165V123.739C188 124.129 188.192 124.421 188.575 124.616L195.667 128.903C195.954 129.098 196.433 129.098 196.721 128.903L203.908 124.713C204.292 124.518 204.483 124.226 204.483 123.836V115.165C204.483 114.677 204.292 114.385 203.908 114.288L196.721 110.098C196.433 110.001 196.05 110.001 195.667 110.098L188.575 114.288Z" fill="#03363D"/>
<path d="M202.471 117.697C199.117 117.697 196.337 120.62 196.337 124.225V124.42H196.05V124.225C196.05 120.62 193.271 117.795 189.917 117.697C189.917 117.892 189.917 118.184 189.917 118.379C189.917 121.205 191.642 123.543 193.942 124.518C194.708 124.81 195.475 124.908 196.242 124.908C197.008 124.908 197.775 124.81 198.542 124.518C200.937 123.641 202.567 121.205 202.567 118.379C202.567 118.184 202.567 117.892 202.471 117.697Z" fill="white"/>
<path d="M196.242 118.087C197.353 118.087 198.254 117.171 198.254 116.041C198.254 114.911 197.353 113.995 196.242 113.995C195.13 113.995 194.229 114.911 194.229 116.041C194.229 117.171 195.13 118.087 196.242 118.087Z" fill="white"/>
<path d="M208.987 114.385C208.987 114.19 209.179 113.995 209.371 113.995H210.712C210.904 113.995 211.096 114.19 211.096 114.385V118.575L214.929 114.19C215.025 114.093 215.121 113.995 215.217 113.995H216.75C216.942 113.995 217.037 114.093 217.133 114.287C217.133 114.385 217.133 114.482 217.037 114.58L213.108 119.159L217.325 124.323C217.421 124.518 217.421 124.713 217.229 124.811C217.133 124.811 217.133 124.908 217.037 124.908H215.408C215.312 124.908 215.217 124.908 215.121 124.811L211.096 119.744V124.421C211.096 124.616 210.904 124.811 210.712 124.811H209.371C209.179 124.811 208.987 124.616 208.987 124.421V114.385Z" fill="#03363D"/>
<path d="M218.379 114.385C218.379 114.19 218.571 114.092 218.667 114.092H219.912C220.104 114.092 220.2 114.287 220.2 114.385V118.185C220.583 117.892 221.158 117.6 222.021 117.6C224.225 117.6 224.896 119.159 224.896 121.01V124.615C224.896 124.81 224.704 124.908 224.608 125.005H223.362C223.171 125.005 223.075 124.81 223.075 124.615V121.01C223.075 120.036 222.596 119.451 221.829 119.451C220.967 119.451 220.583 119.938 220.392 120.718V124.615C220.392 124.81 220.296 125.005 220.008 125.005H218.667C218.475 125.005 218.379 124.81 218.379 124.615V114.385Z" fill="#03363D"/>
<path d="M228.729 120.328C229.208 120.328 229.592 120.426 230.071 120.523C230.071 119.646 229.879 119.159 229.112 119.159C228.442 119.159 227.771 119.257 227.1 119.451C226.908 119.549 226.717 119.354 226.717 119.159L226.525 118.38C226.429 118.185 226.525 117.99 226.717 117.99C227.483 117.795 228.346 117.6 229.112 117.6C231.317 117.6 231.796 118.769 231.796 120.718V124.615C231.796 124.81 231.604 124.908 231.508 125.005H231.029C230.933 125.005 230.837 124.908 230.742 124.713L230.55 124.226C229.975 124.81 229.208 125.103 228.346 125.103C226.908 125.103 225.95 124.226 225.95 122.667C225.95 121.303 226.908 120.328 228.729 120.328ZM228.729 123.544C229.304 123.544 229.879 123.057 229.975 122.764V121.692C229.687 121.595 229.304 121.498 228.921 121.498C228.154 121.498 227.675 121.887 227.675 122.472C227.771 123.154 228.154 123.544 228.729 123.544Z" fill="#03363D"/>
<path d="M233.425 118.087C233.425 117.892 233.617 117.795 233.712 117.697H234.287C234.383 117.697 234.575 117.795 234.575 117.892L234.862 118.574C235.437 117.892 236.3 117.502 237.162 117.502C239.367 117.502 239.942 119.061 239.942 120.718V124.42C239.942 124.615 239.75 124.713 239.654 124.81H238.408C238.217 124.81 238.121 124.615 238.121 124.42V120.718C238.121 119.841 237.737 119.256 236.875 119.256C236.204 119.256 235.533 119.646 235.342 120.328V124.42C235.342 124.713 235.246 124.81 234.862 124.81H233.712C233.521 124.81 233.425 124.615 233.425 124.42V118.087Z" fill="#03363D"/>
<path d="M243.583 124.421L248.279 113.995C248.375 113.897 248.471 113.897 248.567 113.897H248.758C248.854 113.897 248.95 113.995 249.046 114.092L253.742 124.518C253.837 124.615 253.742 124.81 253.646 124.908C253.55 124.908 253.55 124.908 253.454 124.908H252.112C251.921 124.908 251.825 124.81 251.633 124.615L250.867 122.959H246.362L245.596 124.615C245.5 124.81 245.308 124.908 245.117 124.908H243.775C243.583 124.908 243.487 124.81 243.487 124.615C243.487 124.518 243.583 124.518 243.583 124.421ZM250.1 121.108L248.567 117.697H248.471L246.937 121.108H250.1Z" fill="#03363D"/>
<path d="M257.575 117.6C258.629 117.6 259.492 118.087 260.163 118.769C260.354 118.964 260.258 119.159 260.067 119.257L259.396 119.939C259.204 120.133 259.108 120.036 258.917 119.841C258.629 119.549 258.15 119.257 257.479 119.257C256.425 119.257 255.658 120.133 255.658 121.205C255.658 122.277 256.425 123.154 257.479 123.154C258.246 123.154 258.629 122.764 259.013 122.374C259.108 122.277 259.3 122.18 259.492 122.277L260.163 122.862C260.354 123.057 260.45 123.154 260.258 123.349C259.683 124.323 258.725 124.81 257.479 124.81C255.467 124.81 253.742 123.251 253.742 121.108C253.838 119.159 255.467 117.6 257.575 117.6Z" fill="#03363D"/>
<path d="M264.092 120.328C264.571 120.328 264.954 120.426 265.433 120.523C265.433 119.646 265.242 119.159 264.475 119.159C263.804 119.159 263.133 119.257 262.462 119.451C262.271 119.549 262.079 119.354 262.079 119.159L261.887 118.38C261.792 118.185 261.887 117.99 262.079 117.99C262.846 117.795 263.708 117.6 264.475 117.6C266.679 117.6 267.158 118.769 267.158 120.718V124.615C267.158 124.81 266.967 124.908 266.871 125.005H266.392C266.296 125.005 266.2 124.908 266.104 124.713L265.912 124.226C265.337 124.81 264.571 125.103 263.708 125.103C262.271 125.103 261.312 124.226 261.312 122.667C261.217 121.303 262.271 120.328 264.092 120.328ZM264.092 123.544C264.667 123.544 265.242 123.057 265.337 122.764V121.692C265.05 121.595 264.667 121.498 264.283 121.498C263.517 121.498 263.037 121.887 263.037 122.472C263.037 123.154 263.421 123.544 264.092 123.544Z" fill="#03363D"/>
<path d="M271.854 117.6C272.429 117.6 273.004 117.697 273.579 117.892V114.385C273.579 114.19 273.771 114.092 273.962 114.092H275.208C275.4 114.092 275.496 114.287 275.496 114.385V124.518C275.496 124.713 275.304 124.81 275.208 124.908H274.633C274.442 124.908 274.346 124.81 274.25 124.518L274.058 123.933C273.483 124.615 272.621 125.005 271.758 125.005C269.842 125.005 268.404 123.446 268.404 121.303C268.404 119.159 269.746 117.6 271.854 117.6ZM273.579 119.744C273.1 119.451 272.621 119.354 272.142 119.354C270.992 119.354 270.417 120.328 270.417 121.303C270.417 122.277 270.992 123.251 272.046 123.251C272.908 123.251 273.483 122.667 273.579 122.277V119.744Z" fill="#03363D"/>
<path d="M280.192 117.6C282.012 117.6 283.45 118.964 283.45 120.913C283.45 121.01 283.45 121.303 283.45 121.4C283.45 121.595 283.258 121.692 283.162 121.692H278.658C278.658 122.569 279.425 123.349 280.383 123.349C280.958 123.349 281.437 123.154 281.917 122.862C282.108 122.764 282.3 122.667 282.396 122.862L282.971 123.641C283.067 123.739 283.067 123.933 282.971 124.031C282.971 124.031 282.971 124.031 282.875 124.031C282.108 124.713 281.246 125.005 280.287 125.005C278.179 125.005 276.742 123.349 276.742 121.303C276.646 119.257 278.083 117.6 280.192 117.6ZM281.533 120.426C281.533 119.744 280.958 119.159 280.192 119.159C279.329 119.159 278.754 119.646 278.658 120.426H281.533Z" fill="#03363D"/>
<path d="M284.6 118.087C284.6 117.892 284.792 117.795 284.887 117.697H285.462C285.558 117.697 285.75 117.795 285.75 117.892L286.037 118.574C286.517 117.892 287.379 117.502 288.146 117.502C289.2 117.502 289.679 117.892 290.254 118.574C290.542 118.282 291.212 117.502 292.554 117.502C294.758 117.502 295.333 118.964 295.333 120.815V124.518C295.333 124.713 295.142 124.908 294.95 124.908H293.704C293.512 124.908 293.417 124.713 293.417 124.518V120.815C293.417 119.938 293.033 119.354 292.171 119.354C291.117 119.354 290.829 120.133 290.829 120.133C290.829 120.133 290.829 120.523 290.829 120.815V124.615C290.829 124.81 290.637 124.908 290.542 125.005H289.296C289.104 125.005 289.008 124.908 288.912 124.713V121.01C288.912 120.133 288.625 119.549 287.762 119.549C286.9 119.549 286.612 120.133 286.421 120.62V124.713C286.421 124.908 286.229 125.005 286.133 125.102H284.887C284.696 125.102 284.6 124.908 284.6 124.713V118.087Z" fill="#03363D"/>
<path d="M296.004 118.184C295.908 117.892 296.004 117.697 296.292 117.697H297.729C297.825 117.697 298.017 117.795 298.017 117.892L299.262 122.179L300.892 117.892C300.987 117.697 301.083 117.697 301.371 117.697H302.617C302.808 117.697 302.904 117.795 303 117.99C303 118.087 303 118.087 303 118.184L298.879 128.318C298.783 128.415 298.687 128.513 298.592 128.513H297.154C296.962 128.513 296.867 128.415 296.771 128.22C296.771 128.123 296.771 128.123 296.771 128.025L298.208 124.42L296.004 118.184Z" fill="#03363D"/>
</g>
<path fill-rule="evenodd" clip-rule="evenodd" d="M188.3 49.1953V45.9763C190.1 46.5799 191.7 46.8817 193.1 46.8817C195 46.8817 196 46.3787 196 45.3728C196 44.9704 195.9 44.6686 195.6 44.3669C195.3 44.0651 194.6 43.6627 193.4 43.2604C191.3 42.355 189.9 41.5503 189.3 40.9467C188.4 40.142 188 39.1361 188 37.929C188 36.3195 188.6 35.1124 189.8 34.3077C191 33.4024 192.6 33 194.5 33C195.6 33 197.1 33.2012 199.1 33.6036V36.7219C197.6 36.0178 196.3 35.716 195 35.716C193.2 35.716 192.3 36.2189 192.3 37.2249C192.3 37.6272 192.5 37.929 192.8 38.1302C193.1 38.3314 193.9 38.7337 195.3 39.3373C197.3 40.2426 198.6 40.9467 199.2 41.6509C200 42.4556 200.4 43.4615 200.4 44.6686C200.4 46.3787 199.6 47.787 198.1 48.6923C196.9 49.3965 195.3 49.7988 193.3 49.7988C191.7 49.7988 190 49.5976 188.3 49.1953ZM203 49.3965V33.3018H207.5V49.497H203V49.3965ZM211.6 49.3965V33.3018H223.2V36.2189H216V39.8402H222.3V42.4556H216V46.2781H223.4V49.3965H211.6ZM226.4 49.3965V33.3018H232.2L236.3 43.6627L240.5 33.3018H246.1V49.497H241.8V38.0296L237.1 49.5976H234.3L229.6 38.0296V49.497H226.4V49.3965ZM250.2 49.3965V33.3018H261.8V36.2189H254.6V39.8402H260.9V42.4556H254.6V46.2781H262V49.3965H250.2ZM264.9 49.3965V33.3018H270.1L275.7 44.0651V33.3018H278.9V49.497H273.8L268.2 38.432V49.3965H264.9ZM282.1 49.1953V45.9763C283.9 46.5799 285.5 46.8817 286.9 46.8817C288.8 46.8817 289.8 46.3787 289.8 45.3728C289.8 44.9704 289.7 44.6686 289.4 44.3669C289.1 44.0651 288.4 43.6627 287.2 43.2604C285.1 42.355 283.7 41.6509 283 41.0473C282.2 40.2426 281.7 39.2367 281.7 37.929C281.7 36.3195 282.3 35.1124 283.5 34.3077C284.7 33.503 286.3 33.1006 288.2 33.1006C289.3 33.1006 290.7 33.3018 292.4 33.6036L292.8 33.7041V36.8225C291.3 36.2189 289.9 35.9172 288.6 35.9172C286.8 35.9172 285.9 36.4201 285.9 37.426C285.9 37.8284 286.1 38.1302 286.4 38.3314C286.7 38.5325 287.5 38.9349 288.9 39.5385C290.9 40.4438 292.2 41.1479 292.8 41.8521C293.6 42.6568 294 43.6627 294 44.8698C294 46.5799 293.2 47.9882 291.7 48.8935C290.5 49.5976 288.9 50 286.9 50C285.5 49.7988 283.8 49.5976 282.1 49.1953Z" fill="#03363D"/>
<g clip-path="url(#clip1_2_186)">
<path d="M31.987 127.665H43.087C43.187 127.665 43.187 127.764 43.087 127.764C41.887 128.359 39.987 130.046 39.987 130.046C38.787 131.236 37.787 132.03 35.687 132.03H25.087C24.987 132.03 24.987 131.93 25.087 131.93C26.287 131.236 27.987 129.549 27.987 129.549C28.687 128.756 30.187 127.665 31.987 127.665ZM104.787 127.665H115.887C115.987 127.665 115.987 127.764 115.887 127.764C114.587 128.359 112.887 130.046 112.887 130.046C111.587 131.236 110.587 132.03 108.587 132.03H97.987C97.887 132.03 97.887 131.93 97.987 131.93C99.187 131.236 100.887 129.549 100.887 129.549C101.487 128.756 102.987 127.665 104.787 127.665ZM50.187 127.665H61.287C61.387 127.665 61.387 127.764 61.287 127.764C60.087 128.359 58.287 130.046 58.287 130.046C57.087 131.236 56.087 132.03 53.987 132.03H43.287C43.187 132.03 43.187 131.93 43.187 131.93C44.387 131.236 46.087 129.549 46.087 129.549C46.887 128.756 48.387 127.665 50.187 127.665ZM68.387 127.665H79.487C79.587 127.665 79.587 127.764 79.487 127.764C78.287 128.359 76.487 130.046 76.487 130.046C75.287 131.236 74.287 132.03 72.187 132.03H61.487C61.387 132.03 61.387 131.93 61.387 131.93C62.587 131.236 64.287 129.549 64.287 129.549C65.087 128.756 66.587 127.665 68.387 127.665ZM86.587 127.665H97.687C97.787 127.665 97.787 127.764 97.587 127.764C96.387 128.359 94.587 130.046 94.587 130.046C93.387 131.236 92.387 132.03 90.287 132.03H79.687C79.587 132.03 79.587 131.93 79.687 131.93C80.887 131.236 82.587 129.549 82.587 129.549C83.287 128.756 84.787 127.665 86.587 127.665Z" fill="#03363D"/>
<path d="M89.587 107.03C82.587 107.03 77.887 110.502 77.887 115.76C77.887 120.522 82.187 123.796 88.487 123.796C90.587 123.796 92.387 123.498 94.487 123.002V118.935C92.987 120.522 91.187 121.117 89.287 121.117C85.587 121.117 82.887 118.736 82.887 115.363C82.987 111.99 85.687 109.51 89.387 109.51C91.387 109.51 92.987 110.204 94.287 111.494V107.427C92.987 107.228 91.287 107.03 89.587 107.03ZM37.387 109.907C39.987 109.907 43.087 110.403 44.387 111.494V107.625H25.987V111.494C27.287 110.502 30.087 110.006 33.087 110.006V120.423C33.087 122.01 32.987 122.407 32.287 123.2H38.187C37.487 122.407 37.387 122.01 37.387 120.423V109.907ZM56.187 113.677C55.187 114.073 53.287 114.173 52.287 114.173H50.687V109.907H52.787C54.687 109.907 57.787 110.304 59.087 111.296V107.625H45.587C46.287 108.319 46.387 108.815 46.387 110.403V120.423C46.387 122.01 46.287 122.407 45.687 123.2H59.887V119.431C57.887 120.819 54.187 120.819 52.687 120.819H50.587V116.454H52.087C53.087 116.454 54.987 116.554 56.087 116.95L56.187 113.677ZM76.087 108.022C73.887 107.327 71.187 107.03 68.987 107.03C65.087 107.03 61.287 108.22 61.287 112.189C61.287 119.034 72.987 115.363 72.987 119.629C72.987 121.018 70.887 121.613 69.287 121.613C66.387 121.613 64.287 121.117 61.587 119.53V123.002C63.587 123.696 66.187 123.994 69.087 123.994C73.087 123.994 76.887 122.903 76.887 118.835C76.887 111.692 65.287 114.867 65.287 111.395C65.287 110.006 67.187 109.411 68.787 109.411C71.487 109.411 74.487 110.204 76.087 111.792V108.022ZM105.987 107.228C99.687 107.228 95.287 110.7 95.287 115.562C95.287 120.323 99.287 123.597 105.187 123.597C111.587 123.597 115.887 120.323 115.887 115.264C115.887 110.502 111.887 107.228 105.987 107.228ZM105.487 121.216C102.187 121.216 99.987 118.637 99.987 115.462C99.987 112.288 102.187 109.708 105.487 109.708C108.787 109.708 110.987 112.288 110.987 115.462C110.987 118.637 108.887 121.216 105.487 121.216Z" fill="#03363D"/>
</g>
<g clip-path="url(#clip2_2_186)">
<path d="M32.1 42.1035C31.9 42.1035 31.6 42.1035 31.4 42.1035C29.7 42.4053 28.6 43.9145 28.9 45.6249C29.1 47.2346 30.8 48.6431 32.4 48.7438C32.6 48.7438 32.7 48.7438 32.9 48.7438C34.6 48.4419 35.1 46.631 34.8 44.82C34.4 42.9084 33 42.2041 32.1 42.1035ZM33.8 46.9328C33.6 47.134 33.4 47.2346 33.1 47.2346C32.6 47.2346 32.2 46.8322 32.3 46.3291C32.3 46.0273 32.4 45.7255 32.5 45.4236C32.7 45.0212 32.5 44.6188 32.2 44.4175C32 44.3169 31.7 44.2163 31.5 44.3169C31.3 44.3169 31.1 44.5181 30.9 44.7194C30.8 44.82 30.7 45.0212 30.7 45.2224V45.323C30.6 45.5242 30.5 45.6249 30.4 45.5242C30.3 45.5242 30.3 45.4236 30.3 45.4236C30.2 44.9206 30.4 44.3169 30.8 43.9145C31.1 43.6127 31.6 43.4114 32.1 43.5121C32.6 43.6127 33 43.9145 33.3 44.3169C33.5 44.82 33.5 45.5242 33.2 46.0273C33.2 46.0273 33.2 46.1279 33.1 46.1279C33 46.3291 33 46.5303 33.1 46.7316C33.2 46.8322 33.3 46.9328 33.5 46.9328C33.6 46.9328 33.6 46.9328 33.7 46.9328C33.8 46.9328 33.9 46.9328 33.9 46.9328C33.8 46.7316 33.8 46.8322 33.8 46.9328Z" fill="white"/>
<path d="M54.4 50.253C54.8 49.3476 55 48.3415 55 47.3354C55 46.128 54.3 45.625 53.9 45.625C53.9 45.625 53.8 45.2226 53.7 44.9207C53.6 44.7195 53.6 44.5183 53.5 44.2165C53.9 43.7134 54 43.1098 53.9 42.5061C53.8 42.003 53.6 41.6006 53.3 41.2988C52.7 40.7957 51.9 40.3933 51.1 40.1921C51 40.1921 50.6 40.0915 50.5 39.9909C50.5 39.9909 50.5 38.6829 50.4 38.0793C50.4 37.4756 50.3 36.9726 50.1 36.3689C49.9 35.564 49.5 34.8598 48.9 34.2561C50.3 32.747 51.2 31.1372 51.2 29.7287C51.2 27.0122 47.9 26.2073 43.8 27.9177L42.9 28.3201L41.3 26.811C36.7 22.7866 22.2 38.8841 26.8 42.8079L27.8 43.7134C27.5 44.4177 27.4 45.2226 27.5 46.0274C27.6 47.1341 28.2 48.2409 29.1 48.9451C29.9 49.75 31 50.1524 32.2 50.1524C34 54.2774 38.1 56.8933 42.9 56.9939C48.2 57.0945 52.6 54.6799 54.4 50.253ZM55.4 45.3232C55.8 45.9268 56.1 46.6311 56 47.3354C56 48.4421 55.7 49.5488 55.3 50.6555C54.4 52.9695 52.7 54.7805 50.6 56.0884C48.4 57.3963 45.9 58 43.4 58C43.2 58 43.1 58 42.9 58C40.4 57.8994 38 57.1951 35.9 55.8872C34 54.6799 32.5 53.0701 31.5 51.0579C30.4 50.8567 29.3 50.3537 28.4 49.5488C27.3 48.6433 26.6 47.3354 26.5 45.9268C26.4 45.2226 26.5 44.5183 26.6 43.9146L26.1 43.5122C25.5 42.9085 25 42.003 25 40.8963C25 39.8902 25.1 38.7835 25.5 37.878C26.5 35.2622 28.7 32.0427 31.4 29.4268C32.7 28.2195 34 27.2134 35.5 26.3079C36.7 25.503 38.1 25.1006 39.6 25C40.5 25 41.4 25.3018 42.2 25.9055C42.2 25.9055 42.8 26.5091 43.3 27.0122C43.4 27.0122 43.5 26.9116 43.5 26.9116C44.9 26.3079 46.3 26.0061 47.8 25.9055C50.6 25.9055 52.3 27.4146 52.3 29.7287C52.3 31.1372 51.6 32.747 50.3 34.2561C50.6 34.7591 50.9 35.3628 51.1 35.9665C51.3 36.5701 51.4 37.2744 51.4 37.878C51.4 38.1799 51.4 38.5823 51.4 38.9848C52.3 39.186 53.2 39.689 53.9 40.2927C54.4 40.7957 54.7 41.3994 54.8 42.1037C54.9 42.8079 54.8 43.5122 54.5 44.1159C54.5 44.2165 54.6 44.3171 54.6 44.3171C54.6 44.4177 54.6 44.5183 54.7 44.5183C55 44.9207 55.2 45.122 55.4 45.3232Z" fill="white"/>
<path d="M52.2 44.0152C52.6 43.7134 52.7 43.2103 52.7 42.7073C52.7 42.506 52.6 42.2042 52.4 42.1036C51.9 41.7012 51.3 41.3993 50.6 41.2987C50.3 41.1981 50.1 41.1981 49.9 41.0975C49.5 40.9969 49.3 40.8963 49.3 40.0914C49.3 39.7896 49.2 38.6829 49.2 38.1798C49.2 37.3749 49.1 36.2682 48.4 35.7652C48.2 35.6646 48 35.564 47.8 35.564C47.7 35.564 47.6 35.564 47.5 35.564C47.2 35.6646 46.8 35.8658 46.6 36.067C46 36.6707 45.1 36.9725 44.2 36.8719C43.7 36.8719 43.2 36.7713 42.6 36.7713C42.5 36.7713 42.4 36.7713 42.3 36.7713C40.8 36.7713 39.5 37.9786 39.3 39.4877C39 41.8018 40.6 43.0091 41.1 43.7134C41.2 43.814 41.2 43.9146 41.2 44.0152C41.2 44.1158 41.1 44.2164 41 44.317C39.7 45.8262 39.2 47.939 39.7 49.8506C39.8 50.0518 39.8 50.3536 39.9 50.5548C41.1 53.3719 44.8 54.7804 48.5 53.5731C49 53.3719 49.4 53.1707 49.9 52.9695C50.7 52.567 51.4 52.064 52 51.3597C52.9 50.3536 53.6 49.1463 53.8 47.8384C53.9 47.1341 53.7 46.8323 53.5 46.7316C53.3 46.631 53.2 46.631 53 46.631C52.9 46.0274 52.7 45.5243 52.5 44.9207L52.2 44.0152Z" fill="white"/>
<path d="M46.2 32.9481C46.3 32.9481 46.3 32.8475 46.2 32.8475C45.3 32.4451 44.4 32.1432 43.4 32.1432C43.4 32.1432 43.3 32.1432 43.3 32.0426C43.5 31.8414 43.6 31.6402 43.8 31.5396V31.439C42.6 31.5396 41.5 31.942 40.4 32.6463H40.3C40.4 32.3445 40.5 32.0426 40.7 31.7408V31.6402C39.2 32.4451 38 33.5518 36.9 34.7591V34.8597C36.9 34.8597 36.9 34.8597 37 34.8597C38.2 33.9542 39.6 33.3506 41.1 33.0487C42.8 32.6463 44.5 32.6463 46.2 32.9481Z" fill="white"/>
<path d="M41.9 28.8232C41.9 28.8232 40.6 27.3141 40.3 27.2135C37.9 26.6098 32.9 30.1312 29.7 34.7592C28.4 36.6708 26.5 39.8903 27.4 41.6007C27.7 42.0031 28.1 42.3049 28.5 42.6068C29.1 41.8019 30 41.2989 31 41.0976C32.3 37.4757 34.5 34.3568 37.4 32.0428C38.8 30.8354 40.3 29.7287 41.9 28.8232Z" fill="white"/>
<path d="M33.7 46.8324C33.7 46.8324 33.7 46.933 33.7 47.0336C33.6 47.2348 33.3 47.4361 33 47.3354C32.5 47.2348 32.2 46.8324 32.2 46.43C32.2 46.1281 32.3 45.8263 32.4 45.5245C32.6 45.122 32.4 44.7196 32.1 44.5184C31.9 44.4178 31.7 44.3171 31.4 44.4178C31.2 44.4178 31 44.619 30.9 44.8202C30.8 44.9208 30.7 45.122 30.7 45.3232V45.4239C30.6 45.6251 30.5 45.7257 30.4 45.7257C30.4 45.7257 30.3 45.7257 30.3 45.6251C30.2 45.0214 30.4 44.5184 30.8 44.1159C31.1 43.8141 31.6 43.6129 32.1 43.6129C32.6 43.7135 33 44.0153 33.2 44.4178C33.4 45.0214 33.4 45.6251 33.1 46.1281C33.1 46.1281 33.1 46.2287 33 46.2287C32.9 46.43 32.9 46.6312 33 46.8324C33.1 46.933 33.2 47.0336 33.4 47.0336C33.5 47.0336 33.5 47.0336 33.6 47.0336C33.5 46.7318 33.6 46.7318 33.7 46.8324ZM55 47.3354C55 48.3415 54.7 49.3476 54.4 50.2531C52.6 54.5793 48.3 57.0946 43.1 56.8934C38.3 56.7928 34.2 54.1769 32.4 50.0519C31.3 50.0519 30.2 49.5489 29.4 48.8446C28.5 48.1403 28 47.0336 27.8 45.9269C27.7 45.122 27.8 44.3171 28.1 43.6129L27.1 42.7074C22.5 38.7836 36.9 22.686 41.5 26.7104L43.1 28.2196C43.1 28.2196 43.9 27.8171 44 27.8171C48 26.1068 51.3 26.9117 51.3 29.6281C51.3 31.0367 50.4 32.6464 49 34.1556C49.6 34.7592 50 35.4635 50.2 36.2684C50.4 36.7714 50.4 37.3751 50.5 37.9787C50.5 38.5824 50.6 39.8903 50.6 39.8903C50.6 39.8903 51 39.9909 51.2 40.0915C52 40.2928 52.8 40.6952 53.4 41.1982C53.7 41.5001 54 42.0031 54 42.4056C54.1 43.0092 53.9 43.6129 53.6 44.1159C53.7 44.3171 53.8 44.5184 53.8 44.8202C53.9 45.2226 54 45.5245 54 45.5245C54.3 45.6251 55 46.1281 55 47.3354ZM34.7 44.9208C34.4 42.9086 33 42.2043 32.1 42.1037C31.9 42.1037 31.6 42.1037 31.4 42.1037C29.7 42.4056 28.8 43.8141 29 45.7257C29.3 47.4361 30.7 48.744 32.4 48.8446C32.6 48.8446 32.7 48.8446 32.9 48.8446C34.5 48.6434 34.9 46.7318 34.7 44.9208ZM37.5 32.0428C38.9 30.8354 40.4 29.8293 42 28.9239C42 28.9239 40.8 27.4147 40.4 27.3141C38 26.7104 33 30.2318 29.8 34.7592C28.5 36.6708 26.6 39.8903 27.5 41.6007C27.8 42.0031 28.2 42.305 28.6 42.6068C29.2 41.8019 30.1 41.1982 31.1 40.997C32.3 37.5763 34.6 34.3568 37.5 32.0428ZM42.5 48.1403C42.6 48.6434 43 49.1464 43.6 49.247C43.9 49.3476 44.2 49.4482 44.5 49.4482C48.2 50.0519 51.6 47.9391 52.4 47.4361C52.5 47.4361 52.5 47.4361 52.4 47.5367C52.4 47.5367 52.4 47.6373 52.3 47.6373C51.4 48.8446 48.8 50.2531 45.5 50.2531C44.1 50.2531 42.6 49.7501 42.1 48.9452C41.3 47.7379 42.1 45.9269 43.4 46.1281C43.4 46.1281 43.9 46.2287 44 46.2287C46.1 46.43 48.3 46.1281 50.2 45.2226C52.1 44.3171 52.8 43.4117 52.7 42.6068C52.7 42.4056 52.6 42.1037 52.4 42.0031C51.9 41.6007 51.3 41.2989 50.6 41.1982C50.3 41.0976 50.1 41.0976 49.9 40.997C49.5 40.8964 49.3 40.7958 49.3 39.9909C49.3 39.6891 49.2 38.5824 49.2 38.0793C49.2 37.2745 49.1 36.1678 48.4 35.6647C48.2 35.5641 48 35.4635 47.8 35.4635C47.7 35.4635 47.6 35.4635 47.5 35.4635C47.2 35.5641 46.8 35.7653 46.6 35.9665C46 36.5702 45.1 36.872 44.2 36.7714C43.7 36.7714 43.2 36.6708 42.6 36.6708C42.5 36.6708 42.4 36.6708 42.3 36.6708C40.8 36.6708 39.5 37.8781 39.3 39.3873C39 41.7013 40.6 42.9086 41.1 43.5123C41.2 43.6129 41.2 43.7135 41.2 43.8141C41.2 43.9147 41.1 44.0153 41 44.1159C39.7 45.6251 39.2 47.7379 39.7 49.6495C39.8 49.8507 39.8 50.0519 39.9 50.3537C41.1 53.1708 44.8 54.4787 48.5 53.2714C49 53.0702 49.4 52.869 49.9 52.6678C50.7 52.2653 51.4 51.7623 52 51.058C52.9 50.1525 53.6 48.8446 53.8 47.5367C53.9 46.8324 53.7 46.5306 53.5 46.43C53.3 46.3293 53.2 46.3293 53 46.3293C52.9 45.7257 52.7 45.2226 52.5 44.619C51.5 45.4239 50.3 46.0275 49 46.3293C47.5 46.7318 45.9 46.933 44.4 46.8324C43.4 46.7318 42.7 46.43 42.5 47.2348C44 47.7379 45.6 47.9391 47.2 47.7379C47.2 47.7379 47.3 47.7379 47.3 47.8385C47.3 47.8385 47.3 47.9391 47.2 47.9391C47.4 48.2409 45.5 49.0458 42.5 48.1403ZM37.1 34.8598C38.3 33.9543 39.7 33.3507 41.2 33.0489C42.9 32.6464 44.6 32.6464 46.2 33.0489C46.3 33.0489 46.3 32.9482 46.2 32.9482C45.3 32.5458 44.4 32.244 43.4 32.244C43.4 32.244 43.3 32.244 43.4 32.1434C43.6 31.9421 43.7 31.7409 43.9 31.6403V31.5397C42.7 31.6403 41.6 32.0428 40.6 32.747H40.5C40.6 32.4452 40.7 32.1434 40.9 31.8415V31.7409C39.4 32.4452 38.1 33.5519 37.1 34.8598C37 34.7592 37 34.8598 37.1 34.8598C37 34.8598 37.1 34.8598 37.1 34.8598ZM46.7 42.6068C46.9 42.7074 47.2 42.7074 47.3 42.5062C47.4 42.305 47.3 42.1037 47 42.0031C46.8 41.9025 46.5 41.9025 46.4 42.1037C46.3 42.305 46.5 42.5062 46.7 42.6068ZM47.5 39.6891C47.6 39.9909 47.7 40.2928 47.9 40.5946C48.1 40.5946 48.3 40.5946 48.5 40.5946C48.6 40.1921 48.6 39.8903 48.5 39.4879C48.4 38.7836 48.2 38.3812 47.7 38.4818C47.4 38.5824 47.4 39.0854 47.5 39.6891ZM48.4 41.2989C48.1 41.1982 47.8 41.3995 47.8 41.7013C47.7 42.0031 47.9 42.305 48.2 42.305C48.5 42.4056 48.8 42.2043 48.8 41.9025V41.8019C48.8 41.5001 48.6 41.2989 48.4 41.2989Z" fill="#03363D"/>
<path d="M41.6 41.1981C41.5 41.1981 41.5 41.1981 41.5 41.0975C41.5 40.9969 41.7 40.7957 41.8 40.6951C42.4 40.2926 43.1 40.192 43.7 40.4939C44 40.5945 44.2 40.7957 44.4 41.0975C44.5 41.1981 44.5 41.2987 44.4 41.2987C44.3 41.3993 44.2 41.2987 43.9 41.1981C43.6 40.9969 43.2 40.9969 42.8 40.9969C42.5 40.9969 42 41.0975 41.6 41.1981ZM44.4 41.8018C44.2 41.5 43.8 41.3993 43.5 41.5C43.2 41.5 43 41.6006 42.8 41.8018C42.7 41.9024 42.6 42.003 42.6 42.1036C42.6 42.1036 42.6 42.1036 42.6 42.2042C42.6 42.2042 42.6 42.2042 42.7 42.2042C42.8 42.2042 42.9 42.2042 43 42.1036C43.4 42.003 43.8 41.9024 44.2 42.003C44.4 42.003 44.5 42.003 44.5 42.003C44.4 41.8018 44.4 41.8018 44.4 41.8018Z" fill="#03363D"/>
<path d="M43.9 41.9024C44 41.5 44 41.0975 43.9 40.5945C43.8 39.8902 43.5 39.5884 43.1 39.5884C42.7 39.689 42.7 40.192 42.8 40.8963C42.9 41.1981 43 41.5 43.2 41.8018C43.5 42.3048 43.7 42.2042 43.9 41.9024Z" fill="#03363D"/>
<path d="M135.4 44.7197C134.6 44.7197 134.1 43.7136 134.1 42.4056C134.1 41.0977 134.7 40.0916 135.4 40.0916C136.3 40.0916 136.7 40.8965 136.7 42.4056C136.7 43.9148 136.4 44.7197 135.4 44.7197ZM136.3 37.2745C135 37.2745 133.9 38.0794 133.5 39.2867C133.3 39.7898 133.3 39.8904 133.1 39.8904C132.9 39.8904 133.1 39.488 133.2 39.0855C133.3 38.5825 133.3 37.9788 133.3 37.4758H130.9V49.2471H134.2V45.5245C134.6 46.3294 135.5 46.9331 136.4 46.9331C138.8 46.9331 140 44.9209 140 42.1038C140 38.9849 138.6 37.2745 136.3 37.2745ZM111.6 37.4758V46.6313H114.9V37.4758C114.4 37.677 113.8 37.8782 113.2 37.7776C112.6 37.8782 112.1 37.7776 111.6 37.4758ZM107.4 37.2745C105.5 37.2745 104.7 39.0855 104.6 39.3873C104.5 39.6892 104.4 39.8904 104.3 39.8904C104.1 39.8904 104.2 39.488 104.3 39.2867C104.6 38.2806 104.8 37.1739 104.8 36.0672C104.8 35.5642 104.8 35.1617 104.7 34.6587H101.8V46.6313H105.1V42.1038C105.1 41.3995 105.4 40.0916 106.2 40.0916C106.9 40.0916 107.1 40.5947 107.1 41.6008V46.6313H110.4V41.802C110.5 39.488 110.1 37.2745 107.4 37.2745ZM95.5 42.1038C95.5 41.2989 96.3 40.4941 97.7 40.4941C98.8 40.4941 99.8 40.7959 100.7 41.3995V38.18C100.7 38.18 99.7 37.2745 97.3 37.2745C94.8 37.2745 92.7 38.7837 92.7 41.9026C92.7 45.0215 94.6 46.8325 97.3 46.8325C98.5 46.8325 99.7 46.43 100.7 45.6252V42.6069C99.8 43.2105 98.8 43.5123 97.7 43.613C96.1 43.7136 95.5 43.0093 95.5 42.1038ZM88.5 34.7593H91.8V46.7319H88.5V34.7593ZM78.2 44.5184C77.4 44.7197 77 44.4178 77 43.9148C77 43.2105 77.7 42.9087 78.8 42.9087C79.3 42.9087 79.7 42.9087 79.7 42.9087C79.5 43.7136 79 44.3172 78.2 44.5184ZM79.1 37.2745C77.6 37.2745 76.1 37.5764 74.7 38.18V40.8965C74.7 40.8965 76.7 39.6892 78.4 39.6892C79.7 39.6892 79.9 40.3934 79.8 40.9971C79.3 40.8965 78.8 40.8965 78.3 40.8965C75.6 40.8965 74.2 42.1038 74.2 44.116C74.2 46.0276 75.7 46.8325 77 46.8325C78.3 46.8325 79.5 46.1282 80 44.9209C80.2 44.5184 80.2 44.2166 80.4 44.2166C80.6 44.2166 80.5 44.4178 80.5 44.8203C80.5 45.4239 80.5 46.0276 80.6 46.5306H83.1V42.0032C83.1 39.3873 82.1 37.2745 79.1 37.2745ZM126.7 37.2745C125.6 37.3752 124.6 38.0794 124.2 39.1861C124 39.5886 124 39.8904 123.8 39.8904C123.6 39.8904 123.7 39.488 123.6 38.9849C123.3 37.8782 122.3 37.1739 121.2 37.2745C119.7 37.2745 119 38.5825 118.7 39.2867C118.5 39.7898 118.5 39.8904 118.3 39.8904C118.1 39.8904 118.3 39.488 118.4 39.0855C118.5 38.5825 118.5 37.9788 118.5 37.4758H116V46.6313H119.3V42.1038C119.3 41.1983 119.7 40.0916 120.3 40.0916C121 40.0916 121.2 40.6953 121.2 41.7014V46.7319H124.5V42.1038C124.5 41.2989 124.8 40.0916 125.5 40.0916C126.3 40.0916 126.4 40.8965 126.4 41.7014V46.7319H129.7V41.2989C129.8 38.8843 128.9 37.2745 126.7 37.2745ZM70.3 37.2745C69.2 37.3752 68.2 38.0794 67.8 39.1861C67.6 39.5886 67.6 39.8904 67.4 39.8904C67.2 39.8904 67.3 39.5886 67.2 38.9849C66.9 37.8782 65.9 37.1739 64.8 37.2745C63.3 37.2745 62.6 38.5825 62.3 39.2867C62.1 39.7898 62.1 39.8904 61.9 39.8904C61.7 39.8904 61.9 39.488 62 39.0855C62.1 38.5825 62.1 37.9788 62.1 37.4758H59.7V46.6313H63V42.1038C63 41.1983 63.4 40.0916 64 40.0916C64.7 40.0916 64.9 40.6953 64.9 41.7014V46.7319H68.2V42.1038C68.2 41.2989 68.5 40.0916 69.2 40.0916C70 40.0916 70.1 40.8965 70.1 41.7014V46.7319H73.4V41.2989C73.4 38.8843 72.5 37.2745 70.3 37.2745ZM111.2 35.9666C111.2 35.2623 112.1 34.6587 113.2 34.6587C114.3 34.6587 115.2 35.2623 115.2 35.9666C115.2 36.6709 114.3 37.2745 113.2 37.2745C112.1 37.2745 111.2 36.6709 111.2 35.9666ZM85.8 37.8782C86.4 37.8782 86.9 37.7776 87.5 37.5764V46.7319H84.2V37.5764L85.8 37.8782ZM83.8 35.9666C83.8 35.2623 84.7 34.6587 85.8 34.6587C86.9 34.6587 87.8 35.2623 87.8 35.9666C87.8 36.6709 86.9 37.2745 85.8 37.2745C84.7 37.2745 83.8 36.6709 83.8 35.9666Z" fill="#03363D"/>
</g>
<defs>
<clipPath id="clip0_2_186">
<rect width="115" height="19" fill="white" transform="translate(188 110)"/>
</clipPath>
<clipPath id="clip1_2_186">
<rect width="91" height="25" fill="white" transform="translate(25 107)"/>
</clipPath>
<clipPath id="clip2_2_186">
<rect width="115" height="33" fill="white" transform="translate(25 25)"/>
</clipPath>
</defs>
</svg>
